<svg xmlns="http://www.w3.org/2000/svg" width="10" height="10" viewBox="0 0 10 10" fill="none">
<g clip-path="url(#clip0_11050_1697)">
<path d="M8.88889 -0.000976562H1.11111C0.5 -0.000976562 0 0.499023 0 1.11013V8.88791C0 9.49902 0.5 9.99902 1.11111 9.99902H8.88889C9.5 9.99902 10 9.49902 10 8.88791V1.11013C10 0.499023 9.5 -0.000976562 8.88889 -0.000976562ZM4.28333 7.38236C4.23194 7.43386 4.17089 7.47472 4.10368 7.5026C4.03647 7.53048 3.96443 7.54483 3.89167 7.54483C3.81891 7.54483 3.74686 7.53048 3.67965 7.5026C3.61245 7.47472 3.5514 7.43386 3.5 7.38236L1.50556 5.38791C1.45412 5.33648 1.41332 5.27542 1.38549 5.20821C1.35765 5.14101 1.34332 5.06898 1.34332 4.99625C1.34332 4.92351 1.35765 4.85148 1.38549 4.78428C1.41332 4.71707 1.45412 4.65601 1.50556 4.60458C1.55699 4.55314 1.61805 4.51234 1.68525 4.48451C1.75246 4.45667 1.82448 4.44235 1.89722 4.44235C1.96996 4.44235 2.04199 4.45667 2.10919 4.48451C2.17639 4.51234 2.23745 4.55314 2.28889 4.60458L3.88889 6.20458L7.71111 2.38236C7.81499 2.27848 7.95587 2.22012 8.10278 2.22012C8.24968 2.22012 8.39057 2.27848 8.49444 2.38236C8.59832 2.48623 8.65668 2.62712 8.65668 2.77402C8.65668 2.92093 8.59832 3.06181 8.49444 3.16569L4.28333 7.38236Z" fill="#333333"/>
</g>
<defs>
<clipPath id="clip0_11050_1697">
<rect width="10" height="10" fill="white"/>
</clipPath>
</defs>
</svg>