<svg xmlns="http://www.w3.org/2000/svg" width="17" height="16" viewBox="0 0 17 16" fill="none">
<path d="M11.2666 1.74219C10.0388 1.74219 8.94903 2.23562 8.21073 3.08374C7.47243 2.23562 6.38271 1.74219 5.15485 1.74219C4.08543 1.7435 3.06018 2.17661 2.30398 2.94649C1.54779 3.71638 1.12239 4.76019 1.12109 5.84897C1.12109 10.3503 7.58794 13.9468 7.86297 14.098C7.96985 14.1566 8.08934 14.1873 8.21073 14.1873C8.33212 14.1873 8.45162 14.1566 8.55849 14.098C8.83352 13.9468 15.3004 10.3503 15.3004 5.84897C15.2991 4.76019 14.8737 3.71638 14.1175 2.94649C13.3613 2.17661 12.336 1.7435 11.2666 1.74219ZM10.9311 10.6004C10.0799 11.3358 9.16994 11.9976 8.21073 12.5791C7.25152 11.9976 6.34159 11.3358 5.49039 10.6004C4.16597 9.44365 2.58792 7.6796 2.58792 5.84897C2.58792 5.15585 2.85836 4.49112 3.33975 4.00101C3.82115 3.5109 4.47406 3.23556 5.15485 3.23556C6.24275 3.23556 7.1534 3.82047 7.53172 4.76254C7.58678 4.89987 7.68077 5.0174 7.80171 5.10012C7.92264 5.18285 8.06504 5.22703 8.21073 5.22703C8.35643 5.22703 8.49883 5.18285 8.61976 5.10012C8.74069 5.0174 8.83469 4.89987 8.88975 4.76254C9.26807 3.82047 10.1787 3.23556 11.2666 3.23556C11.9474 3.23556 12.6003 3.5109 13.0817 4.00101C13.5631 4.49112 13.8336 5.15585 13.8336 5.84897C13.8336 7.6796 12.2555 9.44365 10.9311 10.6004Z" fill="white"/>
</svg>